# xmcd CD database file
#
# Track frame offsets:
#	150
#	15094
#	31662
#	56531
#	81978
#	113582
#	141669
#	171357
#	188576
#	210437
#	226374
#	254392
#
# Disc length: 3666 seconds
#
# Revision: 3
# Processed by: cddbd v1.5.2PL0 Copyright (c) Steve Scherf et al.
# Submitted via: CDex 1.51
#
DISCID=940e500c
DTITLE=Félix Stüssi - Give me five
DYEAR=2006
DGENRE=Jazz
TTITLE0=Ernesto
TTITLE1=Give me five
TTITLE2=Zoé Felicia
TTITLE3=Subsub's Blues
TTITLE4=Valse boréale
TTITLE5=Yann the Boogieman
TTITLE6=Seven to twelve
TTITLE7=Hit'em with Rhythm
TTITLE8=Bénéfisch
TTITLE9=Let it Be Bop
TTITLE10=See you on the other side
TTITLE11=Cap Bon Désir
EXTD=YEAR: 2006
EXTT0=
EXTT1=
EXTT2=
EXTT3=
EXTT4=
EXTT5=
EXTT6=
EXTT7=
EXTT8=
EXTT9=
EXTT10=
EXTT11=
PLAYORDER=
